<?xml version="1.0" encoding="utf-8"?>
<!-- Generator: Adobe Illustrator 19.0.0, SVG Export Plug-In . SVG Version: 6.00 Build 0)  -->
<svg version="1.1" id="Layer_1" xmlns="http://www.w3.org/2000/svg" xmlns:xlink="http://www.w3.org/1999/xlink" x="0px" y="0px"
	 viewBox="0 0 300 300" style="enable-background:new 0 0 300 300;" xml:space="preserve">
<style type="text/css">
	.st0{fill:#FFFFFF;}
	.st1{fill:#34B17C;}
</style>
<g id="XMLID_1_">
	<path id="XMLID_14_" class="st0" d="M300,290c0,5.5-4.5,10-10,10H10c-5.5,0-10-4.5-10-10V10C0,4.5,4.5,0,10,0h280
		c5.5,0,10,4.5,10,10V290z"/>
</g>
<g id="XMLID_10_">
	<g id="XMLID_11_" transform="translate(19 20)">
		<circle id="XMLID_8_" class="st1" cx="170.9" cy="80" r="23.7"/>
		<path id="XMLID_7_" class="st1" d="M76.1,199.7V57L34,65.5c-2,0-3.9,2.6-3.3,5.3l29.6,154.6c0,1.3,0.7,2,2,2.6
			c0,0.7,1.3,0.7,2,0.7H65L180.1,207c1.3,0,2-1.3,2.6-2h-102C78.1,204.3,76.1,202.4,76.1,199.7L76.1,199.7z"/>
		<path id="XMLID_13_" class="st1" d="M226.1,31.3H90c-2.6,0-4.6,2-4.6,4.6v154.6c0,2.6,2,4.6,4.6,4.6h136.8c2.6,0,4.6-2,4.6-4.6
			V35.9C230.7,33.3,228.8,31.3,226.1,31.3L226.1,31.3z M221.5,97.1l-6.6-6.6c-0.7-0.7-2-1.3-3.9-1.3s-2.6,0.7-3.9,1.3l-36.2,46.7
			L140.6,103c-0.7-1.3-2-2-3.9-2c-1.3,0-2.6,0.7-3.9,1.3l-2,2l-36.8,36.8V40.5h127.6V97.1L221.5,97.1z"/>
	</g>
</g>
</svg>
