<?xml version="1.0" encoding="utf-8"?>
<!-- Generator: Adobe Illustrator 19.0.0, SVG Export Plug-In . SVG Version: 6.00 Build 0)  -->
<svg version="1.1" id="Layer_1" xmlns="http://www.w3.org/2000/svg" xmlns:xlink="http://www.w3.org/1999/xlink" x="0px" y="0px"
	 viewBox="0 0 300 300" style="enable-background:new 0 0 300 300;" xml:space="preserve">
<style type="text/css">
	.st0{fill:#FFFFFF;}
	.st1{display:none;}
	.st2{display:inline;}
	.st3{fill:#34B17C;}
	.st4{fill:#37B17C;}
</style>
<g id="XMLID_1_">
	<path id="XMLID_14_" class="st0" d="M300,290c0,5.5-4.5,10-10,10H10c-5.5,0-10-4.5-10-10V10C0,4.5,4.5,0,10,0h280
		c5.5,0,10,4.5,10,10V290z"/>
</g>
<g id="XMLID_4_" class="st1">
	<g id="XMLID_5_" class="st2">
		<path id="XMLID_2_" class="st3" d="M220.2,146.9L84,56.1c-1.2-0.8-2.7-0.8-3.9-0.2c-1.2,0.7-2,1.9-2,3.3v181.5
			c0,1.4,0.8,2.7,2,3.3c0.6,0.3,1.2,0.4,1.8,0.4c0.7,0,1.5-0.2,2.1-0.6l136.1-90.8c1.1-0.7,1.7-1.9,1.7-3.1
			C221.8,148.7,221.2,147.6,220.2,146.9L220.2,146.9z"/>
	</g>
</g>
<g id="XMLID_9_">
	<g id="XMLID_10_">
		<path id="XMLID_11_" class="st4" d="M207.6,111.6c0-31.8-25.8-57.6-57.6-57.6s-57.6,25.8-57.6,57.6c0,43.2,57.6,105.6,57.6,105.6
			S207.6,154.8,207.6,111.6L207.6,111.6z M130.8,111.6c0-10.5,8.6-19.2,19.2-19.2c10.5,0,19.2,8.6,19.2,19.2
			c0,10.6-8.5,19.2-19.2,19.2C139.5,130.8,130.8,122.2,130.8,111.6L130.8,111.6z M82.8,226.8V246h134.4v-19.2H82.8L82.8,226.8z"/>
	</g>
</g>
</svg>
