<?xml version="1.0" encoding="utf-8"?>
<!-- Generator: Adobe Illustrator 19.0.0, SVG Export Plug-In . SVG Version: 6.00 Build 0)  -->
<svg version="1.1" id="Capa_1" xmlns="http://www.w3.org/2000/svg" xmlns:xlink="http://www.w3.org/1999/xlink" x="0px" y="0px"
	 viewBox="-931 512 57 57" style="enable-background:new -931 512 57 57;" xml:space="preserve">
<style type="text/css">
	.st0{fill:#FFFFFF;}
</style>
<path class="st0" d="M-877.3,562.6l-12.8-13.3c3.3-3.9,5.1-8.8,5.1-14c0-12-9.8-21.7-21.7-21.7c-12,0-21.7,9.8-21.7,21.7
	c0,12,9.8,21.7,21.7,21.7c4.5,0,8.8-1.4,12.5-3.9l12.9,13.4c0.5,0.6,1.3,0.9,2,0.9c0.7,0,1.4-0.3,2-0.8
	C-876.3,565.6-876.2,563.8-877.3,562.6z M-906.8,519.3c8.9,0,16.1,7.2,16.1,16.1s-7.2,16.1-16.1,16.1s-16.1-7.2-16.1-16.1
	S-915.6,519.3-906.8,519.3z"/>
</svg>
