<?xml version="1.0" encoding="utf-8"?>
<!-- Generator: Adobe Illustrator 19.0.0, SVG Export Plug-In . SVG Version: 6.00 Build 0)  -->
<svg version="1.1" id="Layer_1" xmlns="http://www.w3.org/2000/svg" xmlns:xlink="http://www.w3.org/1999/xlink" x="0px" y="0px"
	 viewBox="0 0 256 256" style="enable-background:new 0 0 256 256;" xml:space="preserve">
<style type="text/css">
	.st0{fill:#D5D5D5;}
</style>
<g id="XMLID_1_">
	<g id="XMLID_2_">
		<path id="XMLID_3_" class="st0" d="M127.7,247C62,247,8.5,193.5,8.5,127.8C8.5,62.1,62,8.6,127.7,8.6s119.2,53.5,119.2,119.2
			C246.9,193.5,193.5,247,127.7,247z M127.7,24.6c-56.9,0-103.2,46.3-103.2,103.2c0,56.9,46.3,103.2,103.2,103.2
			c56.9,0,103.2-46.3,103.2-103.2C230.9,70.9,184.6,24.6,127.7,24.6z"/>
	</g>
	<path id="XMLID_8_" class="st0" d="M52.5,215.5l18.5,9l21,6.5l19.5,8H126l19.5-4.5l16-3.5l18.5-9l17-12.5l15.8-13
		c-13.6-33.4-46.4-57-84.8-57c-39.7,0-73.5,25.3-86.2,60.7L52.5,215.5z"/>
	<circle id="XMLID_6_" class="st0" cx="127.5" cy="91.9" r="41.2"/>
</g>
</svg>
