<?xml version="1.0" encoding="utf-8"?>
<!-- Generator: Adobe Illustrator 19.0.0, SVG Export Plug-In . SVG Version: 6.00 Build 0)  -->
<svg version="1.1" id="Layer_1" xmlns="http://www.w3.org/2000/svg" xmlns:xlink="http://www.w3.org/1999/xlink" x="0px" y="0px"
	 viewBox="0 0 256 256" style="enable-background:new 0 0 256 256;" xml:space="preserve">
<style type="text/css">
	.st0{fill:#FFFFFF;}
</style>
<path id="XMLID_3_" class="st0" d="M239.8,72H16.7C9.1,72,3,65.9,3,58.3v0c0-7.6,6.1-13.7,13.7-13.7h223.1c7.6,0,13.7,6.1,13.7,13.7
	v0C253.5,65.9,247.4,72,239.8,72z"/>
<path id="XMLID_9_" class="st0" d="M239.8,211.9H16.7c-7.6,0-13.7-6.1-13.7-13.7v0c0-7.6,6.1-13.7,13.7-13.7h223.1
	c7.6,0,13.7,6.1,13.7,13.7v0C253.5,205.8,247.4,211.9,239.8,211.9z"/>
<path id="XMLID_6_" class="st0" d="M239.8,142H16.7C9.1,142,3,135.8,3,128.3v0c0-7.6,6.1-13.7,13.7-13.7h223.1
	c7.6,0,13.7,6.1,13.7,13.7v0C253.5,135.8,247.4,142,239.8,142z"/>
</svg>
