<?xml version="1.0" encoding="utf-8"?>
<!-- Generator: Adobe Illustrator 19.0.0, SVG Export Plug-In . SVG Version: 6.00 Build 0)  -->
<svg version="1.1" id="Layer_1" xmlns="http://www.w3.org/2000/svg" xmlns:xlink="http://www.w3.org/1999/xlink" x="0px" y="0px"
	 viewBox="0 0 256 256" style="enable-background:new 0 0 256 256;" xml:space="preserve">
<style type="text/css">
	.st0{fill:#FFFFFF;}
</style>
<path id="XMLID_4_" class="st0" d="M147.6,128l93.7-93.7c5.3-5.3,5.3-14,0-19.4v0c-5.3-5.3-14-5.3-19.4,0l-93.7,93.7L34.6,15
	c-5.3-5.3-14-5.3-19.4,0v0c-5.3,5.3-5.3,14,0,19.4l93.7,93.7l-93.7,93.7c-5.3,5.3-5.3,14,0,19.4s14,5.3,19.4,0l93.7-93.7l93.7,93.7
	c5.3,5.3,14,5.3,19.4,0s5.3-14,0-19.4L147.6,128z"/>
</svg>
