<?xml version="1.0" encoding="utf-8"?>
<!-- Generator: Adobe Illustrator 19.0.0, SVG Export Plug-In . SVG Version: 6.00 Build 0)  -->
<svg version="1.1" id="Layer_1" xmlns="http://www.w3.org/2000/svg" xmlns:xlink="http://www.w3.org/1999/xlink" x="0px" y="0px"
	 viewBox="0 0 256 256" style="enable-background:new 0 0 256 256;" xml:space="preserve">
<style type="text/css">
	.st0{fill:#D5D5D5;}
</style>
<path id="XMLID_4_" class="st0" d="M246.2,231.7l-60.1-62.5c15.4-18.4,23.9-41.5,23.9-65.5C210,47.5,164.3,1.8,108.1,1.8
	S6.1,47.5,6.1,103.7s45.7,101.9,101.9,101.9c21.1,0,41.2-6.4,58.4-18.4l60.5,63c2.5,2.6,5.9,4.1,9.6,4.1c3.5,0,6.7-1.3,9.2-3.7
	C251.1,245.4,251.2,237,246.2,231.7z M108.1,28.4c41.5,0,75.3,33.8,75.3,75.3S149.6,179,108.1,179s-75.3-33.8-75.3-75.3
	S66.5,28.4,108.1,28.4z"/>
</svg>
