<?xml version="1.0" encoding="utf-8"?>
<!-- Generator: Adobe Illustrator 19.0.0, SVG Export Plug-In . SVG Version: 6.00 Build 0)  -->
<svg version="1.1" id="Layer_1" xmlns="http://www.w3.org/2000/svg" xmlns:xlink="http://www.w3.org/1999/xlink" x="0px" y="0px"
	 viewBox="-444 246 70 70" style="enable-background:new -444 246 70 70;" xml:space="preserve">
<style type="text/css">
	.st0{fill:#D4D4D4;}
</style>
<g>
	<g>
		<path class="st0" d="M-409,247.5c-18.4,0-33.5,15-33.5,33.5s15,33.5,33.5,33.5s33.5-15,33.5-33.5S-390.6,247.5-409,247.5
			L-409,247.5z M-421.3,293.3c6.8,6.8,17.9,6.8,24.6,0c0.5-0.5,1.3-0.5,1.8,0c0.5,0.5,0.5,1.3,0,1.8c-3.9,3.9-9.1,5.9-14.2,5.9
			s-10.2-2-14.2-5.9c-3.8-3.8-5.9-8.8-5.9-14.2c0-5.4,2.1-10.4,5.9-14.2c3.8-3.8,8.8-5.9,14.2-5.9c5.4,0,10.4,2.1,14.2,5.9
			c0.5,0.5,0.5,1.3,0,1.8c-0.5,0.5-1.3,0.5-1.8,0c-3.3-3.3-7.6-5.1-12.3-5.1c-4.6,0-9.1,1.8-12.3,5.1c-3.3,3.3-5.1,7.6-5.1,12.3
			C-426.3,285.6-424.6,290.1-421.3,293.3L-421.3,293.3z"/>
	</g>
</g>
</svg>
