<?xml version="1.0" encoding="utf-8"?>
<!-- Generator: Adobe Illustrator 19.0.0, SVG Export Plug-In . SVG Version: 6.00 Build 0)  -->
<svg version="1.1" id="Capa_1" xmlns="http://www.w3.org/2000/svg" xmlns:xlink="http://www.w3.org/1999/xlink" x="0px" y="0px"
	 viewBox="-454 256.3 49.7 49.7" style="enable-background:new -454 256.3 49.7 49.7;" xml:space="preserve">
<style type="text/css">
	.st0{fill:#D4D4D4;}
</style>
<g>
	<g>
		<path class="st0" d="M-429.2,257.2c-13.2,0-24,10.7-24,24s10.7,24,24,24c13.2,0,24-10.7,24-24C-405.1,268-415.9,257.2-429.2,257.2
			z M-423.2,282h-3.9c0,6.3,0,13.9,0,13.9h-5.8c0,0,0-7.6,0-13.9h-2.7v-4.8h2.7V274c0-2.3,1.1-5.8,5.8-5.8h4.3v4.7c0,0-2.6,0-3.1,0
			c-0.5,0-1.3,0.3-1.3,1.4v2.9h4.4L-423.2,282z"/>
	</g>
</g>
</svg>
