<?xml version="1.0" encoding="utf-8"?>
<!-- Generator: Adobe Illustrator 19.0.0, SVG Export Plug-In . SVG Version: 6.00 Build 0)  -->
<svg version="1.1" id="Capa_1" xmlns="http://www.w3.org/2000/svg" xmlns:xlink="http://www.w3.org/1999/xlink" x="0px" y="0px"
	 viewBox="-454 256.3 49.7 49.7" style="enable-background:new -454 256.3 49.7 49.7;" xml:space="preserve">
<style type="text/css">
	.st0{fill:#D4D4D4;}
</style>
<g>
	<g>
		<g>
			<path class="st0" d="M-432.3,285.3c-0.2-0.1-0.3-0.2-0.5-0.3c-0.5-0.2-1-0.2-1.6-0.2h-0.1c-2.4,0-4.6,1.5-4.6,3.2
				c0,1.8,1.8,3.3,4.2,3.3c3.1,0,4.7-1.1,4.7-3.2c0-0.2,0-0.4-0.1-0.6C-430.5,286.6-431.2,286.1-432.3,285.3z"/>
			<path class="st0" d="M-434.1,278.9L-434.1,278.9c0.6,0,1.1-0.2,1.5-0.7c0.6-0.7,0.9-1.8,0.7-3c-0.3-2.1-1.7-3.9-3.4-4h-0.1
				c-0.6,0-1.1,0.2-1.5,0.7c-0.6,0.7-0.9,1.7-0.7,2.9C-437.2,277.1-435.6,278.8-434.1,278.9L-434.1,278.9L-434.1,278.9z"/>
			<path class="st0" d="M-429.2,257.2c-13.3,0-24,10.8-24,24c0,13.3,10.8,24,24,24c13.3,0,24-10.8,24-24
				C-405,268.1-415.9,257.2-429.2,257.2z M-431.9,293.1c-0.9,0.3-1.9,0.4-2.9,0.4c-1.2,0-2.2-0.1-3.3-0.4c-2-0.5-3.5-1.5-4.2-2.7
				c-0.3-0.5-0.5-1.1-0.5-1.6c0-0.6,0.1-1.3,0.4-1.8c1.1-2.3,4-3.9,7.2-3.9h0.1c-0.3-0.5-0.4-1-0.4-1.5c0-0.3,0-0.5,0.1-0.8
				c-3.4-0.1-5.8-2.5-5.8-5.7c0-2.3,1.8-4.5,4.5-5.4c0.8-0.3,1.6-0.4,2.3-0.4h7.2c0.3,0,0.5,0.2,0.6,0.4c0.1,0.2,0,0.5-0.2,0.6
				l-1.6,1.2c-0.1,0.1-0.2,0.1-0.3,0.1h-0.6c0.8,0.9,1.2,2.1,1.2,3.6c0,1.6-0.8,3-2.2,4.2c-1.1,0.9-1.2,1.1-1.2,1.6
				c0,0.3,0.8,1.2,1.6,1.7c2,1.5,2.7,2.8,2.7,5.1C-427.2,290.2-429.1,292.2-431.9,293.1z M-415.8,280.8c0,0.3-0.3,0.6-0.6,0.6h-4.1
				v4.1c0,0.3-0.3,0.6-0.6,0.6h-1.2c-0.3,0-0.6-0.3-0.6-0.6v-4.1h-4.1c-0.3,0-0.6-0.3-0.6-0.6v-1.2c0-0.3,0.3-0.6,0.6-0.6h4.1V275
				c0-0.3,0.3-0.6,0.6-0.6h1.2c0.3,0,0.6,0.3,0.6,0.6v4.1h4.1c0.3,0,0.6,0.3,0.6,0.6V280.8L-415.8,280.8z"/>
		</g>
	</g>
</g>
</svg>
