<?xml version="1.0" encoding="utf-8"?>
<!-- Generator: Adobe Illustrator 19.0.0, SVG Export Plug-In . SVG Version: 6.00 Build 0)  -->
<svg version="1.1" id="Layer_1" xmlns="http://www.w3.org/2000/svg" xmlns:xlink="http://www.w3.org/1999/xlink" x="0px" y="0px"
	 viewBox="0 0 256 256" style="enable-background:new 0 0 256 256;" xml:space="preserve">
<style type="text/css">
	.st0{fill:#D5D5D5;}
	.st1{fill:none;stroke:#D5D5D5;stroke-width:17;stroke-miterlimit:10;}
</style>
<g id="XMLID_15_">
	<path id="XMLID_8_" class="st0" d="M151.9,131.1c-2.9-4.1-5.9-8.3-9.4-11.9c-6.1-6.4-15.9-7.5-23.4-2.9c-3.9,2.4-6.9,5.9-9.9,9.3
		c-3.4,3.9-6.6,7.9-10.2,11.6c-6.8,7.1-13.8,14-20.7,21.1c-2.6,2.7-4.8,5.8-6,9.4c-2.2,6.9-2.8,13.8-1,20.8
		c1.8,7.2,6,12.4,13.4,14.5c3.6,1,7.3,1.1,11,0.7c8.6-1.1,16.6-3.8,24.5-7.4c3.1-1.4,6.2-2.4,9.6-1.7c2.1,0.4,4.2,0.8,6.2,1.5
		c5.3,1.8,10.6,3.8,15.8,5.6c5.1,1.8,10.3,2.3,15.6,0.7c1.6-0.9,3.4-1.7,4.9-2.9c5.6-4.1,8.6-9.9,9.7-16.5c1.8-10.7-0.6-20.1-9-27.6
		C164.9,148.2,158.1,139.8,151.9,131.1z"/>
	<g id="XMLID_16_">
		<path id="XMLID_7_" class="st0" d="M204.6,104.5c-2.9-4.3-6.6-7.6-11.9-8.6c-6.8-1.2-12.1,1.5-16.1,6.7c-7,9.2-7.6,19.4-4.5,30.4
			c0.8,1.6,1.5,3.4,2.5,5c0.8,1.3,1.7,2.6,2.7,3.7c4.1,4.5,9.1,7,15.3,5.9c5.1-0.9,8.8-3.9,11.6-8
			C211.2,129.8,211.3,114.5,204.6,104.5z"/>
		<path id="XMLID_6_" class="st0" d="M107,53.3c-6.5-1.1-11.8,1.5-15.7,6.5c-7.2,9.2-7.8,19.5-4.6,31c1,1.7,2.1,4.2,3.6,6.4
			c3.1,4.4,7.2,7.6,12.8,8.1c6.5,0.6,11.3-2.4,15.1-7.4c7.5-9.8,7.9-25.9,0.9-36C116.1,57.5,112.3,54.2,107,53.3z"/>
		<path id="XMLID_5_" class="st0" d="M170.5,69.8c-0.7-1.3-1.7-3.6-3.1-5.7c-2.5-3.9-5.9-6.7-10.4-8c-6.3-1.8-12.9,0.6-17.5,6.4
			c-5,6.4-6.7,13.8-6.1,21.7c0.5,7,2.8,13.3,7.9,18.4c5.3,5.4,12.3,6.7,18.6,3.5c4.1-2,7-5.4,9.1-9.4
			C173.3,88.4,173.6,79.7,170.5,69.8z"/>
		<path id="XMLID_4_" class="st0" d="M69.4,93.8c-6.5-0.2-11.3,3-14.8,8.1c-6.1,9-6.6,18.8-3.4,29.9c0.9,1.6,2.2,4.3,3.8,6.6
			c7.4,10.1,19.8,10.1,27.4,0.3c7.8-10.1,7.9-26.8,0.3-37C79.4,97.2,75.2,94,69.4,93.8z"/>
	</g>
</g>
<rect id="XMLID_2_" x="10.5" y="10.5" class="st1" width="236" height="236"/>
</svg>
