<?xml version="1.0" encoding="utf-8"?>
<!-- Generator: Adobe Illustrator 19.0.0, SVG Export Plug-In . SVG Version: 6.00 Build 0)  -->
<svg version="1.1" id="Layer_1" xmlns="http://www.w3.org/2000/svg" xmlns:xlink="http://www.w3.org/1999/xlink" x="0px" y="0px"
	 viewBox="0 0 100 100" style="enable-background:new 0 0 100 100;" xml:space="preserve">
<style type="text/css">
	.st0{display:none;fill:#00E871;}
	.st1{display:none;}
	.st2{display:inline;fill:#00E871;}
	.st3{fill:#00E871;}
</style>
<path id="XMLID_13_" class="st0" d="M77.2,82.7V6.6c0-2-1.6-3.6-3.6-3.6h-58c-2,0-3.6,1.6-3.6,3.6v76.1c0,2,1.6,3.6,3.6,3.6h58
	C75.6,86.3,77.2,84.7,77.2,82.7L77.2,82.7z M62.7,73.7H26.4c-1,0-1.8-0.8-1.8-1.8s0.8-1.8,1.8-1.8h36.2c1,0,1.8,0.8,1.8,1.8
	C64.5,72.8,63.7,73.7,62.7,73.7L62.7,73.7z M62.7,62.8H26.4c-1,0-1.8-0.8-1.8-1.8s0.8-1.8,1.8-1.8h36.2c1,0,1.8,0.8,1.8,1.8
	S63.7,62.8,62.7,62.8L62.7,62.8z M62.7,51.8H26.4c-1,0-1.8-0.8-1.8-1.8s0.8-1.8,1.8-1.8h36.2c1,0,1.8,0.8,1.8,1.8
	S63.7,51.8,62.7,51.8L62.7,51.8z M62.7,41H26.4c-1,0-1.8-0.8-1.8-1.8s0.8-1.8,1.8-1.8h36.2c1,0,1.8,0.8,1.8,1.8S63.7,41,62.7,41
	L62.7,41z M62.7,30.2H26.4c-1,0-1.8-0.8-1.8-1.8s0.8-1.8,1.8-1.8h36.2c1,0,1.8,0.8,1.8,1.8C64.5,29.3,63.7,30.2,62.7,30.2L62.7,30.2
	z M62.7,19.3H26.4c-1,0-1.8-0.8-1.8-1.8s0.8-1.8,1.8-1.8h36.2c1,0,1.8,0.8,1.8,1.8C64.5,18.5,63.7,19.3,62.7,19.3L62.7,19.3z"/>
<path id="XMLID_3_" class="st0" d="M84.4,10.2c-2,0-3.6,1.6-3.6,3.6v76.1h-58c-2,0-3.6,1.6-3.6,3.6s1.6,3.6,3.6,3.6h61.6
	c2,0,3.6-1.6,3.6-3.6V13.9C88,11.9,86.4,10.2,84.4,10.2L84.4,10.2z"/>
<g id="XMLID_12_" class="st1">
	<path id="XMLID_21_" class="st2" d="M92.1,18.6L51.2,4.7c-1-0.2-1.8-0.2-2.5,0l-41,13.9c-3.3,1-3.2,3.7-3.2,3.7v53.5
		c0,1.5,1,2.9,2.5,3.5l41.7,16.1c0.7,0.3,2.3,0.2,2.7,0l41.6-16c1.5-0.6,2.5-1.9,2.5-3.5V22.4C95.5,21.2,94.8,19,92.1,18.6z
		 M50,12.3l30.6,10.3L50,34.2L19.4,22.6L50,12.3z M12,73.2V28l34.1,13v45.3L12,73.2z M88,73.2L53.9,86.3V41.1L88,28V73.2z"/>
</g>
<g id="XMLID_2_">
	<g id="XMLID_1_">
		<path id="XMLID_4_" class="st3" d="M67.3,48.1c-1.3,0.6-2.3,1-3.5,1.5c2.8,1.4,5.7,3.1,9.3,5.2c10.3,6,17.3,17.1,17.3,30v5.8
			c0,3.2-2.6,5.7-5.8,5.7c-3.2,0-5.8-2.6-5.8-5.7v-0.1H35.6c-1.6,0-2.9-1.3-2.9-2.9s1.3-2.9,2.9-2.9h43.3c0-4.2-1.2-8.7-3.2-11.5
			H47.1c-1.6,0-2.9-1.3-2.9-2.9s1.3-2.9,2.9-2.9h23.1c-8.4-5.8-14.1-9.4-20.2-12.1c-6.8,2.9-13,6.3-23.1,14.3
			c-3.5,4.1-5.8,9.3-5.8,15.1v5.8c0,3.2-2.6,5.7-5.8,5.7s-5.8-2.6-5.8-5.7v-5.8c0-12.8,7-24,17.3-30c3.5-2.1,6.5-3.7,9.3-5.2
			c-1.1-0.4-2.2-0.8-3.4-1.4C19.3,43.3,9.6,30.6,9.6,15.5V9.6c0-3.2,2.6-5.7,5.8-5.7s5.8,2.6,5.8,5.7v0.1h43.3
			c1.6,0,2.9,1.3,2.9,2.9s-1.3,2.9-2.9,2.9H21.1c0,2.9,1.1,8.7,3.1,11.5h34.4c1.6,0,2.9,1.3,2.9,2.9s-1.3,2.9-2.9,2.9H29.3
			c1.1,0,2.3,1.8,3.5,2.6c7.2,3.7,12.4,5.9,17.3,8c4.9-2,10.1-4.2,17.3-8c6.9-4,11.5-11.4,11.5-19.9V9.6c0-3.2,2.6-5.7,5.8-5.7
			c3.2,0,5.8,2.6,5.8,5.7v5.9C90.4,30.6,80.8,43.3,67.3,48.1z"/>
	</g>
</g>
</svg>
