<?xml version="1.0" encoding="utf-8"?>
<!-- Generator: Adobe Illustrator 19.0.0, SVG Export Plug-In . SVG Version: 6.00 Build 0)  -->
<svg version="1.1" id="Layer_1" xmlns="http://www.w3.org/2000/svg" xmlns:xlink="http://www.w3.org/1999/xlink" x="0px" y="0px"
	 viewBox="0 0 100 100" style="enable-background:new 0 0 100 100;" xml:space="preserve">
<style type="text/css">
	.st0{fill:#00E871;}
</style>
<path id="XMLID_13_" class="st0" d="M77.2,82.7V6.6c0-2-1.6-3.6-3.6-3.6h-58c-2,0-3.6,1.6-3.6,3.6v76.1c0,2,1.6,3.6,3.6,3.6h58
	C75.6,86.3,77.2,84.7,77.2,82.7L77.2,82.7z M62.7,73.7H26.4c-1,0-1.8-0.8-1.8-1.8s0.8-1.8,1.8-1.8h36.2c1,0,1.8,0.8,1.8,1.8
	C64.5,72.8,63.7,73.7,62.7,73.7L62.7,73.7z M62.7,62.8H26.4c-1,0-1.8-0.8-1.8-1.8s0.8-1.8,1.8-1.8h36.2c1,0,1.8,0.8,1.8,1.8
	S63.7,62.8,62.7,62.8L62.7,62.8z M62.7,51.8H26.4c-1,0-1.8-0.8-1.8-1.8s0.8-1.8,1.8-1.8h36.2c1,0,1.8,0.8,1.8,1.8
	S63.7,51.8,62.7,51.8L62.7,51.8z M62.7,41H26.4c-1,0-1.8-0.8-1.8-1.8s0.8-1.8,1.8-1.8h36.2c1,0,1.8,0.8,1.8,1.8S63.7,41,62.7,41
	L62.7,41z M62.7,30.2H26.4c-1,0-1.8-0.8-1.8-1.8s0.8-1.8,1.8-1.8h36.2c1,0,1.8,0.8,1.8,1.8C64.5,29.3,63.7,30.2,62.7,30.2L62.7,30.2
	z M62.7,19.3H26.4c-1,0-1.8-0.8-1.8-1.8s0.8-1.8,1.8-1.8h36.2c1,0,1.8,0.8,1.8,1.8C64.5,18.5,63.7,19.3,62.7,19.3L62.7,19.3z"/>
<path id="XMLID_3_" class="st0" d="M84.4,10.2c-2,0-3.6,1.6-3.6,3.6v76.1h-58c-2,0-3.6,1.6-3.6,3.6s1.6,3.6,3.6,3.6h61.6
	c2,0,3.6-1.6,3.6-3.6V13.9C88,11.9,86.4,10.2,84.4,10.2L84.4,10.2z"/>
</svg>
